<svg xmlns="http://www.w3.org/2000/svg" xmlns:xlink="http://www.w3.org/1999/xlink" width="850" height="50" viewBox="0 0 850 50"><svg width="50" height="50" viewBox="12.5 12.5 50 50" enable-background="new 22.5 22.5 30 30" id="accessories" x="0"><path d="M48.404 28.347h-6.66c-.326-1.762-1.92-2.423-3.03-2.423H36.29c-1.888 0-2.774 1.275-3.02 2.423h-6.673c-1.245 0-3.097.824-3.097 3.095V45.98c0 1.244.826 3.097 3.097 3.097h21.808c1.245 0 3.096-.824 3.096-3.097V31.44c0-1.244-.824-3.093-3.096-3.093zM36.29 27.27h2.423c.15 0 1.292.038 1.644 1.077H34.66c.172-.497.594-1.078 1.63-1.078zm-11.443 4.17c0-1.644 1.462-1.744 1.75-1.75h21.808c1.645 0 1.745 1.462 1.75 1.75v4.57l-4.45 4.453H44.23V36.29h-1.347v4.173h-10.77V36.29H30.77v4.173H29.3l-4.453-4.454v-4.57zM39.385 41.81h3.5v1.75h1.348v-1.75h2.028l1.472-1.472v4.972h-8.347v-3.5zM27.27 40.336l1.472 1.472h2.027v1.75h1.346v-1.75h3.5v3.5H27.27v-4.972zm22.883 5.644c0 1.642-1.456 1.747-1.753 1.75H26.597c-1.644 0-1.747-1.462-1.75-1.75v-8.068l1.078 1.078v7.664h11.038v-4.847h1.076v4.847h11.04V38.99l1.075-1.078-.002 8.068z"/></svg>
<svg width="50" height="50" viewBox="12.5 12.5 50 50" enable-background="new 22.5 22.5 30 30" id="apps" x="50"><path d="M30.826 23.5v5.86h-2.93v7.49h2.93v1.3h-2.93v7.49h2.93v5.86h16.277v-28H30.826zm14.65 20.512h-1.3v-5.86h-7.49v5.86h-1.302v-5.86h-2.93V36.85h2.93V29.36h-2.93V25.13h13.022V44.01zm0 5.86H32.455v-4.23H45.478v4.23zM29.525 39.777H33.757v4.233h-4.231V39.78zm8.79 1.152l3.08 3.083h-3.08V40.93zm4.233 1.93l-3.08-3.082h3.08v3.08zM29.524 32.14l1.302 1.302.815.815.814.813.15.15H29.526v-3.08zm1.302-1.15H33.756v3.08l-1.303-1.302-.813-.814-.814-.813-.15-.15h.15zM37.5 47.756v.814h2.93V46.94H37.5zM37.5 26.43h2.93v1.628H37.5zM44.175 29.36h-7.49v7.49h7.49v-7.49zm-1.628 5.86h-4.233v-4.23h4.233v4.23z"/></svg>
<svg width="50" height="50" viewBox="12.5 12.5 50 50" enable-background="new 22.5 22.5 30 30" id="automotive" x="100"><path d="M37.5 23.5c-7.72 0-14 6.28-14 14s6.28 14 14 14 14-6.28 14-14-6.28-14-14-14zm.763 26.5c-.245.016-.492.024-.742.026H37.48c-.248-.002-.494-.01-.74-.025-6.553-.395-11.763-5.85-11.763-12.5 0-1.892.424-3.687 1.18-5.297.117-.252.243-.5.377-.745 2.136-3.863 6.25-6.484 10.968-6.484 4.717 0 8.833 2.622 10.968 6.484.135.244.262.492.38.745.755 1.61 1.18 3.405 1.18 5.298-.002 6.65-5.213 12.104-11.765 12.5zM47.527 32.195c-.136-.252-.278-.497-.43-.737-2.012-3.185-5.562-5.306-9.598-5.306-4.04 0-7.586 2.122-9.6 5.306-.15.24-.294.485-.428.737-.22.415-.415.844-.583 1.288-.476 1.25-.738 2.603-.738 4.018 0 .294.015.587.037.875.426 5.555 4.864 10 10.416 10.434.248.02.5.032.753.034.046 0 .092.004.14.004s.093-.003.14-.004c.253-.002.503-.016.752-.035 5.552-.436 9.99-4.88 10.417-10.435.02-.288.036-.58.036-.875 0-1.415-.262-2.768-.736-4.018-.168-.442-.364-.873-.583-1.287zm-8.796 15.1c1.184-4.076 4.395-7.37 8.563-8.57-.555 4.464-4.098 8.01-8.562 8.57zm-11.025-8.57c4.17 1.2 7.38 4.494 8.563 8.57-4.463-.56-8.007-4.106-8.563-8.57zm9.795-11.1c3.17 0 5.993 1.504 7.8 3.833H29.7c1.808-2.33 4.63-3.832 7.8-3.832zm8.75 5.306c.67 1.28 1.066 2.72 1.115 4.25-4.686 1.167-8.36 4.68-9.866 9.113-1.504-4.432-5.18-7.945-9.866-9.114.05-1.528.447-2.97 1.117-4.25h17.5zM37.5 40.89c1.87 0 3.39-1.522 3.39-3.39 0-1.87-1.522-3.39-3.39-3.39s-3.39 1.522-3.39 3.39 1.52 3.39 3.39 3.39zm0-5.306c1.057 0 1.916.86 1.916 1.917s-.858 1.916-1.916 1.916c-1.056 0-1.915-.858-1.915-1.915s.86-1.916 1.915-1.916z"/></svg>
<svg width="50" height="50" viewBox="12.5 12.5 50 50" enable-background="new 22.5 22.5 30 30" id="cameras" x="150"><path d="M47.695 28.41l-3.273-3.274h-7.3l-3.27 3.273h-1.988v-3.274h-5.09v3.273H23.5v21.454h28V28.41h-3.805zm1.987 6.544H46.94c-1.342-1.973-3.606-3.273-6.168-3.273s-4.824 1.3-6.166 3.274h-9.288v-4.727h9.285l3.274-3.274h5.79l3.276 3.274h2.738v4.727h.002zm0 13.09H25.318V36.773h8.39c-.25.743-.39 1.537-.39 2.363 0 4.11 3.345 7.455 7.454 7.455 4.11 0 7.456-3.346 7.456-7.455 0-.827-.142-1.62-.392-2.363h1.846v11.273zm-14.02-11.272c.323-.694.784-1.312 1.346-1.818.998-.9 2.317-1.455 3.765-1.455s2.767.553 3.767 1.454c.562.507 1.02 1.124 1.344 1.818.334.72.527 1.52.527 2.363 0 3.108-2.528 5.636-5.636 5.636s-5.636-2.526-5.636-5.635c-.003-.844.19-1.642.525-2.363zm-7.07-9.818h1.454v1.456H28.59v-1.456zM27.68 39.136v.91h3.275v-1.82H27.68z"/></svg>
<svg width="50" height="50" viewBox="12.5 12.5 50 50" enable-background="new 22.5 22.5 30 30" id="computers" x="200"><path d="M51.5 47.52V24.827h-28V47.52h13.263v1.18h-4.568v1.474h10.61V48.7H38.24v-1.18H51.5zm-26.526-5.304h25.052v3.83H24.974v-3.83zm0-15.916h25.052v14.44H24.974V26.3zM45.458 43.394h2.653v1.475H45.46zM36.763 27.48h-10.61V39.56h12.084v-5.304h7.956v-6.78h-9.43zm0 10.61h-9.137v-9.137h9.137v9.135zm7.958-9.137v3.83h-6.48v-3.83h6.48z"/></svg>
<svg width="50" height="50" viewBox="12.5 12.5 50 50" enable-background="new 22.5 22.5 30 30" id="eReaders" x="250"><path d="M26.43 23.5v28h22.14v-28H26.43zm20.51 20.512H28.06V25.128h18.884v18.884zm0 5.86H28.06V45.64h18.884v4.232zM38.965 47.756v-.815h-2.93v1.629h2.93zM44.825 47.756v-.815h-2.93v1.629h2.93zM33.104 47.756v-.815h-2.93v1.629h2.93zM30.174 29.36h5.86v1.628h-5.86zM30.174 32.29h2.93v1.628h-2.93zM30.174 35.22h5.86v1.63h-5.86zM30.174 38.15h11.72v1.63h-11.72z"/></svg>
<svg width="50" height="50" viewBox="12.5 12.5 50 50" enable-background="new 22.5 22.5 30 30" id="fitness" x="300"><path d="M49.076 35.616v-2.424h-2.423V30.77h-6.19v4.846h-5.924V30.77h-6.193v2.422h-2.422v2.424H23.5v3.77h2.424v2.423h2.423v2.42h6.19v-4.845h5.925v4.846h6.19v-2.42h2.424v-2.425H51.5v-3.77h-2.424zm1.076 2.423h-1.076V36.96h1.076v1.077zm-2.423 1.345v1.077h-1.077V34.54h1.076v4.845zm-2.422 2.424v1.075h-3.5V32.117h3.5v9.692zm-12.116-2.425v3.5h-3.5V32.115h3.5v7.27zm-8.346-2.423h1.078v1.077h-1.078V36.96zm2.425 2.423V34.538h1.078v5.923H27.27v-1.075zm7.27-2.423h5.922v1.077H34.54V36.96z"/></svg>
<svg width="50" height="50" viewBox="12.5 12.5 50 50" enable-background="new 22.5 22.5 30 30" id="gaming" x="350"><path d="M44.047 26.773H30.955c-4.11 0-7.455 3.343-7.455 7.455v9.817c0 2.307 1.875 4.182 4.182 4.182 2.25 0 4.083-1.787 4.173-4.014.675.466 1.49.74 2.373.74 1.325 0 2.505-.62 3.272-1.586.768.965 1.95 1.587 3.272 1.587.88 0 1.698-.275 2.372-.74.09 2.226 1.924 4.013 4.175 4.013 2.305 0 4.18-1.875 4.18-4.182v-9.817c0-4.112-3.344-7.455-7.453-7.455zm5.635 17.272c0 1.303-1.06 2.364-2.362 2.364-1.304 0-2.364-1.063-2.364-2.365v-2.422c1.883-.232 3.546-1.165 4.727-2.53v4.952zm-11.09-2.363c-.117-.28-.182-.587-.182-.91 0-.322.064-.63.182-.91.357-.852 1.2-1.455 2.18-1.455.984 0 1.826.603 2.184 1.455.117.28.182.588.182.91s-.064.63-.182.91c-.357.854-1.2 1.455-2.183 1.455-.98 0-1.824-.602-2.18-1.455zm-4.364 1.455c-.98 0-1.825-.602-2.18-1.455-.12-.28-.185-.587-.185-.91 0-.322.066-.63.184-.91.356-.852 1.2-1.455 2.18-1.455s1.826.603 2.182 1.455c.117.28.183.588.183.91s-.066.63-.184.91c-.358.853-1.202 1.455-2.182 1.455zm-6.546 3.272c-1.304 0-2.364-1.063-2.364-2.365v-4.953c1.18 1.365 2.845 2.298 4.726 2.53v2.423c0 1.303-1.06 2.364-2.362 2.364zm3.273-17.82h13.092c3.107 0 5.635 2.53 5.635 5.638 0 2.837-2.113 5.188-4.846 5.573-.12-.507-.334-.98-.623-1.4 2.227-.088 4.014-1.923 4.014-4.172 0-2.307-1.875-4.182-4.18-4.182-2.307 0-4.184 1.875-4.184 4.182 0 .88.275 1.698.742 2.373-1.258.05-2.37.654-3.107 1.578-.767-.965-1.946-1.587-3.273-1.587-1.97 0-3.624 1.375-4.063 3.212-2.733-.386-4.845-2.735-4.845-5.573 0-3.11 2.53-5.64 5.638-5.64zm10.727 5.638c0-1.305 1.06-2.364 2.365-2.364 1.303 0 2.362 1.06 2.362 2.364 0 1.303-1.06 2.362-2.363 2.362-1.305 0-2.365-1.06-2.365-2.362zM34.228 34.228v-.91h-2.363v-2.364h-1.82v2.364h-2.363v1.818h6.546z"/></svg>
<svg width="50" height="50" viewBox="12.5 12.5 50 50" enable-background="new 22.5 22.5 30 30" id="headphones" x="400"><path d="M37.5 22.5c-7.406 0-13.43 6.025-13.43 13.43V52.5h8.023V38.2h-6.28v-2.27c0-6.443 5.243-11.685 11.688-11.685 6.443 0 11.687 5.243 11.687 11.686v2.27h-6.28v14.3h8.024V35.93c0-7.405-6.026-13.43-13.43-13.43zm-7.15 28.255h-4.537V39.94h4.536v10.813zm18.835 0H44.65V39.94h4.535v10.815z"/></svg>
<svg width="50" height="50" viewBox="12.5 12.5 50 50" enable-background="new 22.5 22.5 30 30" id="home" x="450"><path d="M49.58 40.967V31.25h1.946V29.75h-13.16l-3.005-3.004-11.303 11.306 1.058 1.06 1.417-1.418V50.11h23.05v-7.025L51 44.5l1.058-1.057-2.477-2.476zm-1.495 7.644h-14.67V40.53H28.03v-4.33l7.333-7.333 12.724 12.723v7.023zm-20.057-6.585h3.892v6.586h-3.892v-6.585zM39.862 31.25h8.223v8.22l-8.223-8.22zM44.192 40.528h-6.885v4.19h6.885v-4.19zm-1.497 2.696h-3.892v-1.198h3.892v1.198z"/></svg>
<svg width="50" height="50" viewBox="12.5 12.5 50 50" enable-background="new 22.5 22.5 30 30" id="outdoors" x="500"><path d="M42.422 30.558v-2.002h-1.2v1.56H33.78v-1.56h-1.202v2.002L23.5 46.444h28l-9.078-15.886zM35.86 45.243l-1.644-11.498 6.57 11.498H35.86zm-4.15 0l1.468-10.282 1.468 10.283H31.71zm-6.142 0l6.57-11.498-1.644 11.498h-4.926zm8.644-13.926h7.26l7.96 13.927H42.17l-7.958-13.927z"/></svg>
<svg width="50" height="50" viewBox="12.5 12.5 50 50" enable-background="new 22.5 22.5 30 30" id="phones" x="550"><path d="M29.36 23.5v28h16.28v-28H29.36zm14.652 26.37H30.988v-4.23h13.024v4.23zm0-5.858H30.988V25.128h13.024v18.884zM38.965 47.757v-.816h-2.93v1.63h2.93zM36.035 26.43h2.93v1.627h-2.93z"/></svg>
<svg width="50" height="50" viewBox="12.5 12.5 50 50" enable-background="new 22.5 22.5 30 30" id="speakers" x="600"><path d="M27.895 23.5v28h19.21v-28h-19.21zm17.582 26.37H29.522V25.13h15.954V49.87zM37.5 48.57c3.68 0 6.675-2.994 6.675-6.676 0-3.68-2.994-6.675-6.675-6.675-3.68 0-6.675 2.994-6.675 6.674 0 3.682 2.995 6.676 6.675 6.676zm0-11.72c2.782 0 5.047 2.262 5.047 5.045s-2.265 5.048-5.047 5.048c-2.783 0-5.048-2.265-5.048-5.048s2.265-5.046 5.048-5.046zM37.5 45.64c2.064 0 3.744-1.68 3.744-3.745 0-2.062-1.68-3.742-3.744-3.742-2.063 0-3.743 1.68-3.743 3.742 0 2.065 1.68 3.746 3.743 3.746zm0-5.86c1.168 0 2.116.948 2.116 2.114 0 1.17-.95 2.117-2.116 2.117s-2.116-.948-2.116-2.116c0-1.165.95-2.115 2.116-2.115zM37.5 33.918c2.064 0 3.744-1.68 3.744-3.744 0-2.065-1.68-3.745-3.744-3.745-2.063 0-3.743 1.68-3.743 3.744 0 2.065 1.68 3.744 3.743 3.744zm0-5.86c1.168 0 2.116.95 2.116 2.116s-.95 2.116-2.116 2.116-2.116-.95-2.116-2.116c0-1.166.95-2.116 2.116-2.116z"/></svg>
<svg width="50" height="50" viewBox="12.5 12.5 50 50" enable-background="new 22.5 22.5 30 30" id="streaming" x="650"><path d="M24.118 25.026h1.765c-.593 0-1.18-.02-1.765-.05v.05zM25.88 25.026v-.05c-.582.032-1.17.05-1.76.05h1.76zM37.5 23.5c-7.72 0-14 6.28-14 14s6.28 14 14 14c7.718 0 14-6.28 14-14s-6.28-14-14-14zM24.998 38.238h3.82c.144 4.46 1.59 8.37 3.74 10.77-4.243-1.83-7.28-5.937-7.56-10.77zM36.763 49.96c-3.498-.616-6.264-5.582-6.47-11.723h6.47V49.96zm0-13.197h-6.47c.206-6.14 2.972-11.107 6.47-11.724v11.723zm1.475 1.475h6.47c-.206 6.14-2.972 11.106-6.47 11.724V38.238zm0-1.475V25.04c3.497.617 6.264 5.583 6.47 11.723h-6.47zm-5.68-10.77c-2.148 2.398-3.596 6.31-3.74 10.77h-3.82c.28-4.835 3.317-8.94 7.56-10.77zm9.885 23.014c2.146-2.397 3.595-6.31 3.74-10.77h3.82c-.282 4.834-3.318 8.94-7.56 10.77zm3.74-12.244c-.145-4.46-1.593-8.372-3.74-10.77 4.242 1.83 7.278 5.936 7.56 10.77h-3.82zm-9.42 14v-.02c.244.012.49.02.738.02s.492-.01.738-.02v.02h-1.474z"/></svg>
<svg width="50" height="50" viewBox="12.5 12.5 50 50" enable-background="new 22.5 22.5 30 30" id="tablets" x="700"><path d="M26.43 23.5v28h22.14v-28H26.43zm20.51 20.512H28.06V25.128h18.88v18.884zm0 5.86H28.06V45.64h18.88v4.23zM38.966 47.756v-.815h-2.93V48.57h2.93zM36.036 26.43h2.93v1.628h-2.93z"/></svg>
<svg width="50" height="50" viewBox="12.5 12.5 50 50" enable-background="new 22.5 22.5 30 30" id="televisions" x="750"><path d="M23.5 24.826V47.52h28V24.827h-28zm26.527 15.916H24.974V26.3h25.052v14.442zm0 5.305H24.974v-3.83h25.052v3.83zM34.848 43.395H37.5v1.473H34.85zM40.154 43.395h2.652v1.473h-2.652zM45.458 43.395h2.652v1.473h-2.652zM29.542 48.7h15.916v1.474H29.542zM37.5 39.562c3.33 0 6.042-2.71 6.042-6.04 0-3.333-2.712-6.042-6.042-6.042-3.33 0-6.042 2.71-6.042 6.042 0 3.33 2.712 6.04 6.042 6.04zm0-10.61c2.52 0 4.568 2.05 4.568 4.57 0 2.518-2.048 4.568-4.568 4.568-2.52 0-4.57-2.05-4.57-4.568.002-2.52 2.05-4.57 4.57-4.57z"/></svg>
<svg width="50" height="50" viewBox="12.5 12.5 50 50" enable-background="new 22.5 22.5 30 30" id="wearables" x="800"><path d="M47.52 38.236V34.11h-3.34c-.46-1.082-1.133-2.048-1.964-2.855V23.5H30.132v7.756C28.5 32.838 27.48 35.052 27.48 37.5c0 2.448 1.02 4.662 2.652 6.242V51.5h12.084v-7.758c.832-.806 1.505-1.77 1.965-2.854h2.605v-1.473h-2.132c.088-.384.148-.778.183-1.18h2.685zm-1.473-2.653v1.18h-1.21c-.035-.4-.096-.793-.183-1.18h1.393zM43.395 37.5c0 .25-.012.495-.036.736-.043.404-.12.797-.225 1.18-.144.515-.34 1.01-.588 1.474-.102.19-.213.376-.33.557-.22.336-.467.65-.737.945-.23.248-.478.482-.74.696-1.244 1.02-2.835 1.633-4.567 1.633-1.732 0-3.323-.61-4.568-1.632-.26-.215-.508-.448-.736-.696-.273-.294-.518-.608-.74-.945-.743-1.136-1.178-2.49-1.178-3.947 0-1.456.435-2.812 1.18-3.947.22-.335.464-.65.737-.944.227-.25.474-.482.735-.697 1.245-1.02 2.836-1.633 4.568-1.633 1.732 0 3.323.614 4.568 1.633.263.215.508.448.74.696.268.292.515.608.735.943.12.182.23.367.33.558.25.464.446.96.59 1.475.105.383.18.776.223 1.18.025.24.037.486.037.734zm-2.653 9.87h-9.137v-2.478c1.33.825 2.894 1.3 4.568 1.3 1.676 0 3.24-.475 4.57-1.3v2.48zm0 2.655h-9.137v-1.18h9.137v1.18zm-9.137-22.4h9.137v2.48c-1.33-.822-2.895-1.3-4.57-1.3s-3.238.478-4.567 1.3v-2.48zm0-2.65h9.137v1.178h-9.137v-1.18zM32.784 36.762v4.127h4.126V34.108h-4.126v2.652zm2.652 2.653h-1.18v-1.18h1.18v1.18zm-1.178-3.832h1.18v1.18h-1.18v-1.18zM38.09 34.11h1.474v6.78H38.09z"/></svg>
</svg>